<svg width="24" height="24" viewBox="0 0 24 24" fill="none" xmlns="http://www.w3.org/2000/svg">
<path fill-rule="evenodd" clip-rule="evenodd" d="M6 0.75C6 0.335786 5.66421 0 5.25 0C4.83579 0 4.5 0.335786 4.5 0.75V1.5H2.25C1.65326 1.5 1.08097 1.73705 0.65901 2.15901C0.237053 2.58097 0 3.15326 0 3.75V15.75C0 16.3467 0.237053 16.919 0.65901 17.341C1.08097 17.7629 1.65326 18 2.25 18H8.25C8.66421 18 9 17.6642 9 17.25C9 16.8358 8.66421 16.5 8.25 16.5H2.25C2.05109 16.5 1.86032 16.421 1.71967 16.2803C1.57902 16.1397 1.5 15.9489 1.5 15.75V7.5H16.5V8.25C16.5 8.66421 16.8358 9 17.25 9C17.6642 9 18 8.66421 18 8.25V3.75C18 3.15326 17.7629 2.58097 17.341 2.15901C16.919 1.73705 16.3467 1.5 15.75 1.5H13.5V0.75C13.5 0.335786 13.1642 0 12.75 0C12.3358 0 12 0.335786 12 0.75V1.5H6V0.75ZM12 3.75V3H6V3.75C6 4.16421 5.66421 4.5 5.25 4.5C4.83579 4.5 4.5 4.16421 4.5 3.75V3H2.25C2.05109 3 1.86032 3.07902 1.71967 3.21967C1.57902 3.36032 1.5 3.55109 1.5 3.75V6H16.5V3.75C16.5 3.55109 16.421 3.36032 16.2803 3.21967C16.1397 3.07902 15.9489 3 15.75 3H13.5V3.75C13.5 4.16421 13.1642 4.5 12.75 4.5C12.3358 4.5 12 4.16421 12 3.75Z" fill="black"/>
<path d="M17.25 13.5C17.6642 13.5 18 13.8358 18 14.25V16.5H20.25C20.6642 16.5 21 16.8358 21 17.25C21 17.6642 20.6642 18 20.25 18H18V20.25C18 20.6642 17.6642 21 17.25 21C16.8358 21 16.5 20.6642 16.5 20.25V18H14.25C13.8358 18 13.5 17.6642 13.5 17.25C13.5 16.8358 13.8358 16.5 14.25 16.5H16.5V14.25C16.5 13.8358 16.8358 13.5 17.25 13.5Z" fill="black"/>
<path fill-rule="evenodd" clip-rule="evenodd" d="M17.25 10.5C15.4598 10.5 13.7429 11.2112 12.477 12.477C11.2112 13.7429 10.5 15.4598 10.5 17.25C10.5 19.0402 11.2112 20.7571 12.477 22.023C13.7429 23.2888 15.4598 24 17.25 24C19.0402 24 20.7571 23.2888 22.023 22.023C23.2888 20.7571 24 19.0402 24 17.25C24 15.4598 23.2888 13.7429 22.023 12.477C20.7571 11.2112 19.0402 10.5 17.25 10.5ZM13.5377 13.5377C14.5223 12.5531 15.8576 12 17.25 12C18.6424 12 19.9777 12.5531 20.9623 13.5377C21.9469 14.5223 22.5 15.8576 22.5 17.25C22.5 18.6424 21.9469 19.9777 20.9623 20.9623C19.9777 21.9469 18.6424 22.5 17.25 22.5C15.8576 22.5 14.5223 21.9469 13.5377 20.9623C12.5531 19.9777 12 18.6424 12 17.25C12 15.8576 12.5531 14.5223 13.5377 13.5377Z" fill="black"/>
</svg>
